<svg width="120" height="120" viewBox="0 0 120 120" fill="none" xmlns="http://www.w3.org/2000/svg">
<path fill-rule="evenodd" clip-rule="evenodd" d="M120 60C120 75.913 113.679 91.1742 102.426 102.426C91.1742 113.679 75.913 120 60 120C44.087 120 28.8258 113.679 17.5736 102.426C6.32141 91.1742 0 75.913 0 60C0 44.087 6.32141 28.8258 17.5736 17.5736C28.8258 6.32141 44.087 0 60 0C75.913 0 91.1742 6.32141 102.426 17.5736C113.679 28.8258 120 44.087 120 60ZM90.225 37.275C89.6893 36.7411 89.0514 36.3208 88.3495 36.0391C87.6476 35.7574 86.8961 35.6202 86.1399 35.6356C85.3838 35.651 84.6385 35.8187 83.9486 36.1288C83.2588 36.4388 82.6385 36.8848 82.125 37.44L56.0775 70.6275L40.38 54.9225C39.3137 53.9289 37.9033 53.388 36.4461 53.4137C34.9888 53.4394 33.5984 54.0297 32.5678 55.0603C31.5372 56.0909 30.9469 57.4813 30.9212 58.9386C30.8955 60.3958 31.4364 61.8062 32.43 62.8725L52.275 82.725C52.8096 83.2586 53.4462 83.6791 54.1469 83.9614C54.8475 84.2437 55.5979 84.3819 56.3531 84.3679C57.1083 84.3539 57.853 84.188 58.5427 83.8799C59.2324 83.5719 59.853 83.1281 60.3675 82.575L90.3075 45.15C91.3282 44.0887 91.8921 42.6696 91.878 41.1972C91.864 39.7248 91.2732 38.3166 90.2325 37.275H90.225Z" fill="#43B5D9"/>
</svg>
