<svg width="17" height="19" viewBox="0 0 17 19" fill="none" xmlns="http://www.w3.org/2000/svg">
<path d="M11.9994 16.88C12.0394 17.18 11.9394 17.5 11.7094 17.71C11.3194 18.1 10.6894 18.1 10.2994 17.71L6.28937 13.7C6.05937 13.47 5.95937 13.16 5.99937 12.87V7.75L1.20937 1.62C0.869369 1.19 0.949369 0.56 1.37937 0.22C1.56937 0.08 1.77937 0 1.99937 0H15.9994C16.2194 0 16.4294 0.08 16.6194 0.22C17.0494 0.56 17.1294 1.19 16.7894 1.62L11.9994 7.75V16.88ZM4.03937 2L7.99937 7.06V12.58L9.99937 14.58V7.05L13.9594 2H4.03937Z" fill="#1F82A1"/>
</svg>
