<svg width="18" height="21" viewBox="0 0 18 21" fill="none" xmlns="http://www.w3.org/2000/svg">
<path d="M8.95455 3C8.42891 2.33201 8.42886 2.33205 8.4288 2.3321L8.42867 2.3322L8.42833 2.33247L8.42735 2.33324L8.42422 2.33572L8.41337 2.34431L8.37465 2.37526C8.34176 2.40168 8.29521 2.43938 8.23891 2.48579C8.12679 2.57822 7.97372 2.7071 7.81194 2.85148C7.6517 2.99448 7.47444 3.1602 7.31756 3.32555C7.17608 3.47467 6.99357 3.68229 6.87882 3.90329C6.7671 4.11844 6.66887 4.32036 6.61417 4.53188C6.55841 4.74753 6.55879 4.93633 6.55906 5.06589C6.55907 5.07449 6.55909 5.08284 6.55909 5.09091C6.55909 5.72622 6.81147 6.33552 7.2607 6.78475C7.28398 6.80803 7.3077 6.83079 7.33182 6.853V7.40909V8.10455H4.31818C3.47793 8.10455 2.67209 8.43834 2.07794 9.03248C1.48379 9.62663 1.15 10.4325 1.15 11.2727V12.4627C1.15 12.6925 1.18294 12.9148 1.24435 13.125L1.15 13.061V14.665V18.2273C1.15 18.6576 1.32096 19.0704 1.62529 19.3747C1.92961 19.679 2.34236 19.85 2.77273 19.85H15.1364C15.5667 19.85 15.9795 19.679 16.2838 19.3747C16.5881 19.0704 16.7591 18.6576 16.7591 18.2273V14.665V13.061L16.6641 13.1254C16.7259 12.9153 16.7591 12.6929 16.7591 12.4627V11.2727C16.7591 10.4325 16.4253 9.62663 15.8312 9.03249C15.237 8.43833 14.4312 8.10455 13.5909 8.10455H10.5773V7.40909V6.85332C11.0433 6.42368 11.3376 5.81194 11.3496 5.1342C11.3516 5.10728 11.3532 5.07548 11.3537 5.03927C11.3548 4.9579 11.3503 4.85323 11.3321 4.73105C11.2955 4.48496 11.2033 4.17066 10.994 3.84021C10.784 3.50868 10.3628 3.10939 10.0839 2.85554C9.92755 2.7132 9.78116 2.58603 9.67417 2.49467C9.62049 2.44884 9.5763 2.41165 9.54519 2.38564L9.50868 2.35525L9.49856 2.34688L9.49567 2.3445L9.49479 2.34377L9.49449 2.34353L9.49438 2.34344C9.49434 2.3434 9.49429 2.34336 8.95455 3ZM8.95455 3L8.42891 2.33201L8.96617 1.90925L9.49429 2.34336L8.95455 3Z" stroke="#737373" stroke-width="1.7"/>
</svg>
