<svg width="17" height="20" viewBox="0 0 17 20" fill="none" xmlns="http://www.w3.org/2000/svg">
<path d="M16.5346 7.53985C15.1085 5.09934 12.0151 4.21553 9.50432 5.5312V0.509569H7.49568V5.5312C4.98486 4.21553 1.89154 5.09934 0.4654 7.53985C-1.54325 10.5528 3.47837 19.5917 5.48702 19.5917C7.49568 19.5917 7.49567 18.5874 8.5 18.5874C9.50432 18.5874 9.50432 19.5917 11.513 19.5917C13.5216 19.5917 18.5433 10.5528 16.5346 7.53985ZM14.777 10.9345C14.1543 13.4151 12.9291 15.695 11.2117 17.5831C11.0108 17.5831 10.7798 17.4827 10.6091 17.332C9.37376 16.3377 7.62624 16.3377 6.39092 17.332C6.22018 17.4827 5.98919 17.5831 5.78832 17.5831C4.07093 15.705 2.83561 13.4151 2.22297 10.9445C1.97189 10.2114 1.92167 9.41793 2.13258 8.66469C2.71509 7.63023 3.79976 6.96738 4.98486 6.93725C5.54728 6.94729 6.09966 7.07786 6.60183 7.32894L7.49568 7.78088H9.50432L10.3982 7.32894C10.9003 7.07786 11.4527 6.94729 12.0151 6.93725C13.2002 6.96738 14.2849 7.62019 14.8674 8.65465C15.0783 9.40789 15.0281 10.2013 14.777 10.9345ZM7.49568 2.51822C1.85137 5.6015 0.575876 1.29294 0.575876 1.29294C0.575876 1.29294 3.24738 -2.31258 7.49568 2.51822Z" fill="#737373"/>
</svg>
